# Blender v2.78 (sub 0) OBJ File: ''
# www.blender.org
mtllib largeCone.mtl
o Cone
v 0.000000 -4.500000 -2.250000
v 0.438953 -4.500000 -2.206767
v 0.861038 -4.500000 -2.078729
v 1.250033 -4.500000 -1.870807
v 1.590990 -4.500000 -1.590990
v 1.870807 -4.500000 -1.250033
v 2.078729 -4.500000 -0.861038
v 2.206767 -4.500000 -0.438953
v 2.250000 -4.500000 -0.000000
v 0.000000 -0.000000 0.000000
v 2.206767 -4.500000 0.438953
v 2.078729 -4.500000 0.861037
v 1.870807 -4.500000 1.250033
v 1.590990 -4.500000 1.590990
v 1.250033 -4.500000 1.870807
v 0.861037 -4.500000 2.078729
v 0.438953 -4.500000 2.206767
v -0.000001 -4.500000 2.250000
v -0.438954 -4.500000 2.206767
v -0.861039 -4.500000 2.078728
v -1.250034 -4.500000 1.870806
v -1.590991 -4.500000 1.590989
v -1.870808 -4.500000 1.250032
v -2.078730 -4.500000 0.861036
v -2.206767 -4.500000 0.438951
v -2.250000 -4.500000 -0.000002
v -2.206766 -4.500000 -0.438956
v -2.078728 -4.500000 -0.861040
v -1.870805 -4.500000 -1.250035
v -1.590988 -4.500000 -1.590992
v -1.250031 -4.500000 -1.870808
v -0.861035 -4.500000 -2.078730
v -0.438950 -4.500000 -2.206768
vt 0.4623 0.3987
vt 0.7579 0.0000
vt 0.4920 0.4225
vt 0.5266 0.4443
vt 0.5649 0.4634
vt 0.6053 0.4789
vt 0.6464 0.4903
vt 0.6866 0.4971
vt 0.7242 0.4991
vt 0.7579 0.4962
vt 0.0000 0.8440
vt 0.2932 0.4485
vt 0.0251 0.8671
vt 0.0563 0.8887
vt 0.0924 0.9081
vt 0.1318 0.9244
vt 0.1732 0.9370
vt 0.2150 0.9454
vt 0.2555 0.9494
vt 0.2932 0.9488
vt 0.7320 0.9177
vt 1.0000 0.4991
vt 0.7631 0.9393
vt 0.7992 0.9586
vt 0.8386 0.9749
vt 0.8801 0.9875
vt 0.9218 0.9960
vt 0.9623 1.0000
vt 1.0000 0.9994
vt 0.7320 0.4997
vt 0.7320 1.0000
vt 0.6943 0.4991
vt 0.6538 0.5031
vt 0.6120 0.5115
vt 0.5706 0.5242
vt 0.5311 0.5405
vt 0.4951 0.5598
vt 0.4639 0.5814
vt 0.4388 0.6045
vt 0.4388 0.3739
vt 0.0000 0.2463
vt 0.0000 0.2022
vt 0.0084 0.1588
vt 0.0250 0.1180
vt 0.0490 0.0813
vt 0.0795 0.0501
vt 0.1155 0.0255
vt 0.1554 0.0086
vt 0.1978 0.0000
vt 0.2410 0.0000
vt 0.2834 0.0086
vt 0.3233 0.0255
vt 0.3592 0.0501
vt 0.3898 0.0813
vt 0.4138 0.1180
vt 0.4303 0.1588
vt 0.4388 0.2022
vt 0.4388 0.2463
vt 0.4303 0.2897
vt 0.4138 0.3305
vt 0.3898 0.3672
vt 0.3592 0.3984
vt 0.3233 0.4230
vt 0.2834 0.4399
vt 0.2410 0.4485
vt 0.1978 0.4485
vt 0.1554 0.4399
vt 0.1155 0.4230
vt 0.0795 0.3984
vt 0.0490 0.3672
vt 0.0250 0.3305
vt 0.0084 0.2897
vn 0.0878 0.4455 -0.8910
vn 0.2599 0.4455 -0.8567
vn 0.4220 0.4455 -0.7896
vn 0.5680 0.4455 -0.6921
vn 0.6921 0.4455 -0.5680
vn 0.7896 0.4455 -0.4220
vn 0.8567 0.4455 -0.2599
vn 0.8910 0.4455 -0.0878
vn 0.8910 0.4455 0.0878
vn 0.8567 0.4455 0.2599
vn 0.7896 0.4455 0.4220
vn 0.6921 0.4455 0.5680
vn 0.5680 0.4455 0.6921
vn 0.4220 0.4455 0.7896
vn 0.2599 0.4455 0.8567
vn 0.0878 0.4455 0.8910
vn -0.0878 0.4455 0.8910
vn -0.2599 0.4455 0.8567
vn -0.4220 0.4455 0.7896
vn -0.5680 0.4455 0.6921
vn -0.6921 0.4455 0.5680
vn -0.7896 0.4455 0.4220
vn -0.8567 0.4455 0.2599
vn -0.8910 0.4455 0.0878
vn -0.8910 0.4455 -0.0878
vn -0.8567 0.4455 -0.2599
vn -0.7896 0.4455 -0.4220
vn -0.6921 0.4455 -0.5680
vn -0.5680 0.4455 -0.6921
vn -0.4220 0.4455 -0.7896
vn -0.2599 0.4455 -0.8567
vn -0.0878 0.4455 -0.8910
vn 0.0000 -1.0000 0.0000
usemtl None
s off
f 1/1/1 10/2/1 2/3/1
f 2/3/2 10/2/2 3/4/2
f 3/4/3 10/2/3 4/5/3
f 4/5/4 10/2/4 5/6/4
f 5/6/5 10/2/5 6/7/5
f 6/7/6 10/2/6 7/8/6
f 7/8/7 10/2/7 8/9/7
f 8/9/8 10/2/8 9/10/8
f 9/11/9 10/12/9 11/13/9
f 11/13/10 10/12/10 12/14/10
f 12/14/11 10/12/11 13/15/11
f 13/15/12 10/12/12 14/16/12
f 14/16/13 10/12/13 15/17/13
f 15/17/14 10/12/14 16/18/14
f 16/18/15 10/12/15 17/19/15
f 17/19/16 10/12/16 18/20/16
f 18/21/17 10/22/17 19/23/17
f 19/23/18 10/22/18 20/24/18
f 20/24/19 10/22/19 21/25/19
f 21/25/20 10/22/20 22/26/20
f 22/26/21 10/22/21 23/27/21
f 23/27/22 10/22/22 24/28/22
f 24/28/23 10/22/23 25/29/23
f 25/30/24 10/31/24 26/32/24
f 26/32/25 10/31/25 27/33/25
f 27/33/26 10/31/26 28/34/26
f 28/34/27 10/31/27 29/35/27
f 29/35/28 10/31/28 30/36/28
f 30/36/29 10/31/29 31/37/29
f 31/37/30 10/31/30 32/38/30
f 32/38/31 10/31/31 33/39/31
f 33/40/32 10/2/32 1/1/32
f 1/41/33 2/42/33 3/43/33 4/44/33 5/45/33 6/46/33 7/47/33 8/48/33 9/49/33 11/50/33 12/51/33 13/52/33 14/53/33 15/54/33 16/55/33 17/56/33 18/57/33 19/58/33 20/59/33 21/60/33 22/61/33 23/62/33 24/63/33 25/64/33 26/65/33 27/66/33 28/67/33 29/68/33 30/69/33 31/70/33 32/71/33 33/72/33
